{"asset":{"version":"2.0","generator":"VECTARY"},"nodes":[{"translation":[0,0,0],"scale":[0.001,0.001,0.001],"rotation":[-0.7071067811865475,0,0,0.7071067811865476],"name":"Jyosui","children":[1,2,3,4]},{"translation":[0,0,0],"scale":[1,1,1],"rotation":[0.7071067811865475,0,0,0.7071067811865476],"name":"ADAL_E8007_1W1_Jyosui_Frame","mesh":0},{"translation":[0,0,0],"scale":[1,1,1],"rotation":[0.7071067811865475,0,0,0.7071067811865476],"name":"ADAL_E8007_1W1_Jyosui_Igusa","mesh":1},{"translation":[0,0,0],"scale":[1,1,1],"rotation":[0.7071067811865475,0,0,0.7071067811865476],"name":"ADAL_E8007_1W1_Jyosui_Heri","mesh":2},{"translation":[0,0,0],"scale":[1,1,1],"rotation":[0.7071067811865475,0,0,0.7071067811865476],"name":"ADAL_E8007_1W1_Jyosui_Seat","mesh":3},{"translation":[0.4245563067778802,2.0835372515959554,2.3733242013329567],"scale":[1,1,1],"rotation":[-0.3472121522617835,0.09981689789060416,0.03719760225625779,0.9317170421343715],"name":"Camera","camera":0}],"materials":[{"pbrMetallicRoughness":{"baseColorFactor":[1,1,1,1],"baseColorTexture":{"index":0,"extensions":{"KHR_texture_transform":{"offset":[0,0],"scale":[1,1],"rotation":0}},"texCoord":0},"metallicFactor":0,"roughnessFactor":0.7},"name":"ADAL_E8007_1W1_Jyosui_Frame","emissiveFactor":[0,0,0],"alphaMode":"OPAQUE","doubleSided":false},{"pbrMetallicRoughness":{"baseColorFactor":[1,1,1,1],"baseColorTexture":{"index":1,"extensions":{"KHR_texture_transform":{"offset":[0,0],"scale":[1,1],"rotation":0}},"texCoord":0},"metallicFactor":0,"roughnessFactor":0.7},"name":"ADAL_E8007_1W1_Jyosui_Igusa","emissiveFactor":[0,0,0],"alphaMode":"OPAQUE","doubleSided":false},{"pbrMetallicRoughness":{"baseColorFactor":[1,1,1,1],"baseColorTexture":{"index":2,"extensions":{"KHR_texture_transform":{"offset":[0,0],"scale":[1,1],"rotation":0}},"texCoord":0},"metallicFactor":0,"roughnessFactor":0.7},"name":"ADAL_E8007_1W1_Jyosui_Heri","emissiveFactor":[0,0,0],"alphaMode":"OPAQUE","doubleSided":false},{"pbrMetallicRoughness":{"baseColorFactor":[1,1,1,1],"baseColorTexture":{"index":3,"extensions":{"KHR_texture_transform":{"offset":[0,0],"scale":[1,1],"rotation":0}},"texCoord":0},"metallicFactor":0,"roughnessFactor":0.7},"name":"ADAL_E8007_1W1_Jyosui_Seat","emissiveFactor":[0,0,0],"alphaMode":"OPAQUE","doubleSided":false}],"textures":[{"sampler":0,"source":0},{"sampler":0,"source":1},{"sampler":0,"source":2},{"sampler":0,"source":3}],"images":[{"uri":"52c39a93-3ef7-4280-9c73-217f166ec02e.jpg","mimeType":"image/jpeg"},{"uri":"2a2233a6-ed73-441a-81a5-5187479c789f.jpg","mimeType":"image/jpeg"},{"uri":"7df68909-11f6-4c29-a351-b82b46325683.jpg","mimeType":"image/jpeg"},{"uri":"799af3a5-bfa8-48b1-ae41-050b9b61fc6c.jpg","mimeType":"image/jpeg"}],"samplers":[{"wrapS":10497,"wrapT":10497}],"meshes":[{"primitives":[{"mode":4,"attributes":{"POSITION":1,"NORMAL":2,"TEXCOORD_0":3},"material":0,"indices":0}]},{"primitives":[{"mode":4,"attributes":{"POSITION":5,"NORMAL":6,"TEXCOORD_0":7},"material":1,"indices":4}]},{"primitives":[{"mode":4,"attributes":{"POSITION":9,"NORMAL":10,"TEXCOORD_0":11},"material":2,"indices":8}]},{"primitives":[{"mode":4,"attributes":{"POSITION":13,"NORMAL":14,"TEXCOORD_0":15},"material":3,"indices":12}]}],"accessors":[{"bufferView":0,"byteOffset":0,"componentType":5125,"count":12564,"type":"SCALAR"},{"bufferView":1,"byteOffset":0,"componentType":5126,"count":2992,"max":[340,600.0001220703125,349.7886962890625],"min":[-340,0.00009999999747378752,-350.2113037109375],"type":"VEC3"},{"bufferView":2,"byteOffset":0,"componentType":5126,"count":2992,"type":"VEC3"},{"bufferView":3,"byteOffset":0,"componentType":5126,"count":2992,"type":"VEC2"},{"bufferView":4,"byteOffset":0,"componentType":5125,"count":5544,"type":"SCALAR"},{"bufferView":5,"byteOffset":0,"componentType":5126,"count":1336,"max":[325,565.0001220703125,335],"min":[-325,60.000099182128906,-335.4078063964844],"type":"VEC3"},{"bufferView":6,"byteOffset":0,"componentType":5126,"count":1336,"type":"VEC3"},{"bufferView":7,"byteOffset":0,"componentType":5126,"count":1336,"type":"VEC2"},{"bufferView":8,"byteOffset":0,"componentType":5125,"count":9936,"type":"SCALAR"},{"bufferView":9,"byteOffset":0,"componentType":5126,"count":2656,"max":[325,575.0001220703125,334.9999084472656],"min":[-325,49.999900817871094,-335],"type":"VEC3"},{"bufferView":10,"byteOffset":0,"componentType":5126,"count":2656,"type":"VEC3"},{"bufferView":11,"byteOffset":0,"componentType":5126,"count":2656,"type":"VEC2"},{"bufferView":12,"byteOffset":0,"componentType":5125,"count":7920,"type":"SCALAR"},{"bufferView":13,"byteOffset":0,"componentType":5126,"count":1618,"max":[240,730.0543212890625,359.7572021484375],"min":[-240,200.00010681152344,-290.1029052734375],"type":"VEC3"},{"bufferView":14,"byteOffset":0,"componentType":5126,"count":1618,"type":"VEC3"},{"bufferView":15,"byteOffset":0,"componentType":5126,"count":1618,"type":"VEC2"}],"bufferViews":[{"buffer":0,"byteOffset":0,"byteLength":50256,"target":34963},{"buffer":0,"byteOffset":50256,"byteLength":35904,"target":34962},{"buffer":0,"byteOffset":86160,"byteLength":35904,"target":34962},{"buffer":0,"byteOffset":122064,"byteLength":23936,"target":34962},{"buffer":0,"byteOffset":146000,"byteLength":22176,"target":34963},{"buffer":0,"byteOffset":168176,"byteLength":16032,"target":34962},{"buffer":0,"byteOffset":184208,"byteLength":16032,"target":34962},{"buffer":0,"byteOffset":200240,"byteLength":10688,"target":34962},{"buffer":0,"byteOffset":210928,"byteLength":39744,"target":34963},{"buffer":0,"byteOffset":250672,"byteLength":31872,"target":34962},{"buffer":0,"byteOffset":282544,"byteLength":31872,"target":34962},{"buffer":0,"byteOffset":314416,"byteLength":21248,"target":34962},{"buffer":0,"byteOffset":335664,"byteLength":31680,"target":34963},{"buffer":0,"byteOffset":367344,"byteLength":19416,"target":34962},{"buffer":0,"byteOffset":386760,"byteLength":19416,"target":34962},{"buffer":0,"byteOffset":406176,"byteLength":12944,"target":34962}],"cameras":[{"name":"Camera","type":"perspective","extras":{"targetDistance":3.240160198650451},"perspective":{"aspectRatio":1.8642533936651584,"yfov":0.6108652381980153,"zfar":143.100397588476,"znear":0.013633988173554113}}],"scene":0,"scenes":[{"nodes":[0,5],"name":"Jyosui"}],"extensionsUsed":["KHR_texture_transform"],"buffers":[{"byteLength":419120,"uri":"Jyosui.bin"}]}